<?xml version="1.0" standalone="no"?><!DOCTYPE svg PUBLIC "-//W3C//DTD SVG 1.1//EN" "http://www.w3.org/Graphics/SVG/1.1/DTD/svg11.dtd"><svg t="1551255142160" class="icon" style="" viewBox="0 0 1024 1024" version="1.1" xmlns="http://www.w3.org/2000/svg" p-id="2066" xmlns:xlink="http://www.w3.org/1999/xlink" width="128" height="128"><defs><style type="text/css"></style></defs><path d="M0 576.512h98.048a419.584 419.584 0 0 0 349.44 350.208V1024A516.224 516.224 0 0 1 0 576.512z m0-129.024A516.224 516.224 0 0 1 447.488 0v98.24a419.584 419.584 0 0 0-349.248 349.248H0zM576.512 1024v-97.152a419.52 419.52 0 0 0 350.336-350.336H1024A516.224 516.224 0 0 1 576.512 1024zM1024 447.488h-97.28a419.584 419.584 0 0 0-350.208-349.44V0A516.224 516.224 0 0 1 1024 447.488z m-232.32-214.144L622.848 622.72l-389.44 168.96L403.328 403.2l388.416-169.92zM512 576.512a64.512 64.512 0 1 0 0-129.024 64.512 64.512 0 0 0 0 129.024z" fill="#ffffff" p-id="2067"></path></svg>